<svg xmlns="http://www.w3.org/2000/svg" viewBox="0 0 236 64" width="236" height="64">
  <defs>
    <linearGradient id="connapse-logo-grad" x1="0%" y1="0%" x2="100%" y2="100%">
      <stop offset="0%" stop-color="#7c3aed"/>
      <stop offset="100%" stop-color="#bc8cff"/>
    </linearGradient>
    <linearGradient id="connapse-logo-star" x1="0%" y1="0%" x2="0%" y2="100%">
      <stop offset="0%" stop-color="#bc8cff"/>
      <stop offset="100%" stop-color="#7c3aed"/>
    </linearGradient>
  </defs>
  <g transform="translate(32, 32)">
    <rect x="-26" y="-26" width="52" height="52" rx="12" fill="#0d1117" stroke="url(#connapse-logo-grad)" stroke-width="2"/>
    <path d="M 0,-18 L 3.5,-3.5 L 18,0 L 3.5,3.5 L 0,18 L -3.5,3.5 L -18,0 L -3.5,-3.5 Z" fill="url(#connapse-logo-star)" opacity="0.85"/>
    <circle cx="0" cy="0" r="2" fill="#0d1117"/>
  </g>
  <g fill="#e6edf3" transform="translate(72, 40)">
    <path d="M15.98-5.12L15.98-0.65Q14.10 0.44 10.55 0.44L10.55 0.44Q6.40 0.44 3.83-2.07Q1.27-4.59 1.27-8.56L1.27-8.56Q1.27-13.15 4.02-15.79Q6.77-18.44 11.37-18.44L11.37-18.44Q14.55-18.44 15.98-17.60L15.98-17.60L15.98-12.88Q14.24-14.19 12.09-14.19L12.09-14.19Q9.70-14.19 8.31-12.79Q6.91-11.39 6.91-8.93L6.91-8.93Q6.91-6.54 8.24-5.18Q9.58-3.81 11.92-3.81L11.92-3.81Q13.99-3.81 15.98-5.12L15.98-5.12ZM28.20 0.44L28.20 0.44Q23.70 0.44 21.12-2.08Q18.54-4.61 18.54-8.93L18.54-8.93Q18.54-13.39 21.22-15.92Q23.89-18.44 28.44-18.44L28.44-18.44Q32.92-18.44 35.47-15.92Q38.02-13.39 38.02-9.25L38.02-9.25Q38.02-4.76 35.39-2.16Q32.77 0.44 28.20 0.44ZM28.34-14.19L28.34-14.19Q26.37-14.19 25.28-12.83Q24.19-11.48 24.19-9L24.19-9Q24.19-3.81 28.37-3.81L28.37-3.81Q32.36-3.81 32.36-9.14L32.36-9.14Q32.36-14.19 28.34-14.19ZM59.01-11.02L59.01 0L53.47 0L53.47-10.00Q53.47-14.19 50.48-14.19L50.48-14.19Q49.04-14.19 48.11-13.08Q47.18-11.97 47.18-10.27L47.18-10.27L47.18 0L41.63 0L41.63-18L47.18-18L47.18-15.15L47.25-15.15Q49.24-18.44 53.03-18.44L53.03-18.44Q59.01-18.44 59.01-11.02L59.01-11.02ZM80.79-11.02L80.79 0L75.25 0L75.25-10.00Q75.25-14.19 72.26-14.19L72.26-14.19Q70.82-14.19 69.89-13.08Q68.96-11.97 68.96-10.27L68.96-10.27L68.96 0L63.40 0L63.40-18L68.96-18L68.96-15.15L69.03-15.15Q71.02-18.44 74.81-18.44L74.81-18.44Q80.79-18.44 80.79-11.02L80.79-11.02ZM100.16-10.76L100.16 0L94.90 0L94.90-2.58L94.83-2.58Q93.02 0.44 89.47 0.44L89.47 0.44Q86.85 0.44 85.35-1.05Q83.85-2.53 83.85-5.01L83.85-5.01Q83.85-10.25 90.05-11.06L90.05-11.06L94.94-11.71Q94.94-14.66 91.74-14.66L91.74-14.66Q88.52-14.66 85.62-12.74L85.62-12.74L85.62-16.93Q86.78-17.53 88.80-17.98Q90.81-18.44 92.46-18.44L92.46-18.44Q100.16-18.44 100.16-10.76L100.16-10.76ZM94.94-7.31L94.94-7.31L94.94-8.53L91.67-8.10Q88.96-7.75 88.96-5.66L88.96-5.66Q88.96-4.71 89.62-4.10Q90.28-3.50 91.41-3.50L91.41-3.50Q92.97-3.50 93.96-4.58Q94.94-5.66 94.94-7.31ZM110.18-2.09L110.18-2.09L110.11-2.09L110.11 8.28L104.55 8.28L104.55-18L110.11-18L110.11-15.29L110.18-15.29Q112.24-18.44 115.96-18.44L115.96-18.44Q119.46-18.44 121.37-16.04Q123.28-13.64 123.28-9.51L123.28-9.51Q123.28-5.01 121.05-2.29Q118.83 0.44 115.14 0.44L115.14 0.44Q111.88 0.44 110.18-2.09ZM110.02-9.47L110.02-9.47L110.02-8.03Q110.02-6.17 111.01-4.99Q111.99-3.81 113.59-3.81L113.59-3.81Q115.49-3.81 116.53-5.28Q117.58-6.75 117.58-9.44L117.58-9.44Q117.58-14.19 113.89-14.19L113.89-14.19Q112.18-14.19 111.10-12.89Q110.02-11.60 110.02-9.47ZM125.70-0.47L125.70-0.47L125.70-4.97Q127.07-4.15 128.43-3.74Q129.80-3.34 131.01-3.34L131.01-3.34Q132.49-3.34 133.34-3.74Q134.19-4.15 134.19-4.97L134.19-4.97Q134.19-5.50 133.80-5.85Q133.42-6.21 132.81-6.47Q132.21-6.73 131.48-6.94Q130.76-7.15 130.10-7.42L130.10-7.42Q129.02-7.82 128.21-8.29Q127.39-8.75 126.83-9.37Q126.28-9.98 125.99-10.79Q125.70-11.60 125.70-12.71L125.70-12.71Q125.70-14.22 126.36-15.31Q127.02-16.40 128.12-17.09Q129.22-17.79 130.63-18.11Q132.05-18.44 133.58-18.44L133.58-18.44Q134.77-18.44 136.00-18.25Q137.23-18.07 138.43-17.72L138.43-17.72L138.43-13.43Q137.37-14.04 136.17-14.35Q134.96-14.66 133.80-14.66L133.80-14.66Q133.26-14.66 132.78-14.56Q132.29-14.47 131.92-14.28Q131.55-14.10 131.34-13.81Q131.13-13.52 131.13-13.15L131.13-13.15Q131.13-12.66 131.45-12.30Q131.77-11.95 132.28-11.70Q132.79-11.44 133.41-11.24Q134.03-11.04 134.65-10.83L134.65-10.83Q135.76-10.44 136.65-9.98Q137.55-9.53 138.19-8.91Q138.83-8.30 139.17-7.47Q139.52-6.64 139.52-5.50L139.52-5.50Q139.52-3.90 138.82-2.77Q138.13-1.63 136.98-0.92Q135.83-0.21 134.32 0.11Q132.82 0.44 131.20 0.44L131.20 0.44Q128.23 0.44 125.70-0.47ZM158.89-9.76L158.89-7.42L147.15-7.42Q147.43-3.50 152.09-3.50L152.09-3.50Q155.06-3.50 157.31-4.90L157.31-4.90L157.31-0.90Q154.81 0.44 150.82 0.44L150.82 0.44Q146.46 0.44 144.05-1.98Q141.64-4.39 141.64-8.72L141.64-8.72Q141.64-13.20 144.25-15.82Q146.85-18.44 150.64-18.44L150.64-18.44Q154.58-18.44 156.74-16.10Q158.89-13.76 158.89-9.76L158.89-9.76ZM147.11-10.83L153.74-10.83Q153.74-14.70 150.61-14.70L150.61-14.70Q149.27-14.70 148.30-13.59Q147.32-12.48 147.11-10.83L147.11-10.83Z"/>
  </g>
</svg>
